<?xml version="1.0" encoding="UTF-8" standalone="no"?><!DOCTYPE svg PUBLIC "-//W3C//DTD SVG 1.1//EN" "http://www.w3.org/Graphics/SVG/1.1/DTD/svg11.dtd"><svg width="100%" height="100%" viewBox="0 0 1217 384" version="1.1" xmlns="http://www.w3.org/2000/svg" xmlns:xlink="http://www.w3.org/1999/xlink" xml:space="preserve" xmlns:serif="http://www.serif.com/" style="fill-rule:evenodd;clip-rule:evenodd;stroke-linejoin:round;stroke-miterlimit:2;"><path d="M697.379,132.65c-19.937,0 -34.796,9.8 -34.796,33.367c0,17.754 9.78,30.091 33.721,30.091c20.296,0 34.084,-11.946 34.084,-30.825c-0,-21.387 -12.338,-32.633 -33.009,-32.633Zm-39.875,166.458c-4.721,5.792 -9.425,11.959 -9.425,19.217c0,14.5 18.475,18.85 43.863,18.85c21.045,0 49.691,-1.467 49.691,-21.013c0,-11.637 -13.783,-12.354 -31.2,-13.445l-52.929,-3.609Zm107.338,-165.366c6.512,8.35 13.416,19.954 13.416,36.637c0,40.233 -31.545,63.817 -77.233,63.817c-11.621,-0 -22.133,-1.45 -28.662,-3.271l-11.959,19.221l35.525,2.166c62.746,4 99.725,5.825 99.725,54.034c0,41.7 -36.621,65.271 -99.725,65.271c-65.625,-0 -90.654,-16.684 -90.654,-45.334c-0,-16.32 7.258,-25 19.954,-36.991c-11.979,-5.046 -15.95,-14.113 -15.95,-23.913c0,-7.975 3.971,-15.233 10.513,-22.133c6.525,-6.883 13.771,-13.771 22.479,-21.746c-17.759,-8.708 -31.188,-27.571 -31.188,-54.408c0,-41.7 27.554,-70.334 83.042,-70.334c15.592,0 25.017,1.434 33.367,3.634l70.716,-0l0,30.808l-33.362,2.542" style="fill:#fff;fill-rule:nonzero;"/><g><clipPath id="_clip1"><rect x="814.583" y="3.292" width="104.167" height="284.208"/></clipPath><g clip-path="url(#_clip1)"><path d="M861.996,67.838c-20.671,-0.001 -32.633,-11.959 -32.633,-32.651c-0,-20.654 11.962,-31.9 32.633,-31.9c21.042,0 33.008,11.25 33.008,31.9c0,20.688 -11.962,32.651 -33.008,32.651Zm-46.779,217.937l-0,-28.65l18.491,-2.525c5.079,-0.729 5.809,-1.821 5.809,-7.275l-0,-106.604c-0,-3.971 -1.088,-6.525 -4.717,-7.6l-19.583,-6.9l3.987,-29.363l75.067,0l-0,150.475c-0,5.829 0.358,6.542 5.812,7.275l18.488,2.525l-0,28.646l-103.354,0" style="fill:#fff;fill-rule:nonzero;"/></g></g><g><path d="M1061.96,271.708c-15.592,7.604 -38.43,14.504 -59.113,14.504c-43.15,0 -59.458,-17.395 -59.458,-58.395l-0,-94.988c-0,-2.183 -0,-3.629 -2.917,-3.629l-25.387,-0l-0,-32.275c31.933,-3.629 44.612,-19.596 48.6,-59.117l34.458,0l-0,51.5c-0,2.538 -0,3.625 2.896,3.625l51.125,0l-0,36.267l-54.021,-0l-0,86.654c-0,21.4 5.075,29.733 24.658,29.733c10.154,0 20.667,-2.537 29.363,-5.791l9.796,31.916" style="fill:#fff;fill-rule:nonzero;"/></g><g><clipPath id="_clip2"><rect x="152.083" y="3.292" width="383.333" height="380.042"/></clipPath><g clip-path="url(#_clip2)"><path d="M524.675,176.546l-165.804,-165.788c-4.584,-4.585 -10.808,-7.164 -17.292,-7.164c-6.483,0 -12.708,2.579 -17.291,7.164l-34.43,34.425l43.667,43.684c10.456,-3.565 22.077,-0.863 29.888,6.95c7.849,7.862 10.534,19.564 6.9,30.062l42.091,42.104c10.497,-3.649 22.206,-0.96 30.059,6.905c5.461,5.45 8.533,12.857 8.533,20.572c-0,7.716 -3.072,15.123 -8.533,20.573c-5.454,5.462 -12.863,8.535 -20.582,8.535c-7.718,-0 -15.128,-3.073 -20.581,-8.535c-8.28,-8.289 -10.784,-20.804 -6.329,-31.641l-39.258,-39.259l-0,103.304c2.849,1.401 5.45,3.259 7.7,5.5c11.287,11.294 11.287,29.874 -0,41.167c-11.375,11.358 -29.805,11.358 -41.146,0c-5.464,-5.453 -8.537,-12.864 -8.537,-20.583c0,-7.72 3.073,-15.13 8.537,-20.584c2.715,-2.732 5.953,-4.89 9.521,-6.345l-0,-104.267c-3.568,-1.455 -6.806,-3.613 -9.521,-6.346c-8.339,-8.333 -10.829,-20.943 -6.284,-31.821l-43.05,-43.066l-113.687,113.687c-4.587,4.584 -7.166,10.809 -7.166,17.294c-0,6.484 2.579,12.71 7.166,17.294l165.804,165.804c4.584,4.585 10.808,7.164 17.292,7.164c6.483,-0 12.708,-2.579 17.291,-7.164l165.042,-165.021c9.491,-9.492 9.491,-25.112 0,-34.604" style="fill:#f03c2e;fill-rule:nonzero;"/></g></g></svg>